<svg xmlns="http://www.w3.org/2000/svg" viewBox="0 0 1400 760">
  <defs>
    <filter id="rough" x="-10%" y="-10%" width="120%" height="120%">
      <feTurbulence type="fractalNoise" baseFrequency="0.004 0.025" numOctaves="2" seed="9" result="noise"/>
      <feDisplacementMap in="SourceGraphic" in2="noise" scale="11" xChannelSelector="R" yChannelSelector="G"/>
    </filter>
    <filter id="rough2" x="-10%" y="-10%" width="120%" height="120%">
      <feTurbulence type="fractalNoise" baseFrequency="0.012 0.045" numOctaves="1" seed="19" result="noise"/>
      <feDisplacementMap in="SourceGraphic" in2="noise" scale="5" xChannelSelector="R" yChannelSelector="G"/>
    </filter>
  </defs>

  <g fill="none" stroke="#111" stroke-linecap="round" stroke-linejoin="round" filter="url(#rough)">
    <text x="40" y="255" font-family="Bradley Hand, Chalkboard SE, Comic Sans MS, cursive" font-size="235" font-weight="700" stroke-width="7.5" transform="rotate(-7 40 255)">Monique</text>
    <text x="315" y="610" font-family="Bradley Hand, Chalkboard SE, Comic Sans MS, cursive" font-size="235" font-weight="700" stroke-width="7.5" transform="rotate(5 315 610)">Johnson</text>
  </g>

  <g fill="none" stroke="#111" stroke-linecap="round" stroke-linejoin="round" opacity="0.48" filter="url(#rough2)">
    <text x="46" y="250" font-family="Bradley Hand, Chalkboard SE, Comic Sans MS, cursive" font-size="235" font-weight="700" stroke-width="2.2" transform="rotate(-7 46 250)">Monique</text>
    <text x="308" y="617" font-family="Bradley Hand, Chalkboard SE, Comic Sans MS, cursive" font-size="235" font-weight="700" stroke-width="2.2" transform="rotate(5 308 617)">Johnson</text>
  </g>

  <g fill="none" stroke="#111" stroke-linecap="round" filter="url(#rough2)">
    <path d="M84 290 C190 325, 310 300, 438 320" stroke-width="5"/>
    <path d="M625 655 C760 700, 920 676, 1078 690" stroke-width="5"/>
    <path d="M1068 128 C1125 150, 1178 215, 1208 300" stroke-width="6"/>
    <path d="M1154 113 C1168 179, 1195 226, 1238 252" stroke-width="4"/>
    <path d="M260 430 C196 455, 172 502, 198 544 C229 592, 310 574, 323 516 C333 468, 301 442, 260 430" stroke-width="5.5"/>
  </g>
</svg>
